<?xml version="1.0" standalone="no"?>
<!DOCTYPE svg PUBLIC "-//W3C//DTD SVG 20010904//EN"
 "http://www.w3.org/TR/2001/REC-SVG-20010904/DTD/svg10.dtd">
<svg version="1.0" xmlns="http://www.w3.org/2000/svg"
 width="268.000000pt" height="268.000000pt" viewBox="0 0 268.000000 268.000000"
 preserveAspectRatio="xMidYMid meet">
<metadata>
Created by potrace 1.11, written by Peter Selinger 2001-2013
</metadata>
<g transform="translate(0.000000,268.000000) scale(0.100000,-0.100000)"
fill="#000000" stroke="none">
<path d="M1379 2406 c-17 -9 -29 -9 -42 -2 -13 8 -20 7 -27 -4 -9 -13 -10 -13
-10 0 0 9 -3 11 -8 5 -8 -12 -27 -13 -38 -2 -12 12 -24 8 -24 -9 0 -14 -3 -14
-15 -4 -10 8 -15 9 -15 1 0 -7 -8 -8 -26 -1 -16 7 -23 7 -19 0 3 -6 2 -10 -4
-10 -5 0 -13 5 -16 10 -3 6 -12 10 -18 10 -8 0 -8 -3 1 -9 11 -7 11 -9 -1 -14
-8 -3 -20 0 -26 6 -8 8 -11 7 -11 -3 0 -13 -2 -13 -9 -1 -7 11 -13 12 -23 5
-7 -6 -30 -10 -51 -10 -20 1 -37 -2 -37 -5 0 -3 -14 -3 -31 -1 -25 4 -30 2
-24 -9 5 -8 -1 -6 -13 5 -20 17 -22 17 -28 2 -6 -15 -7 -15 -20 1 -12 15 -13
15 -8 2 3 -10 0 -20 -7 -25 -7 -4 -10 -3 -5 4 3 6 2 13 -4 17 -5 3 -10 1 -10
-6 0 -8 -5 -7 -17 2 -11 10 -14 10 -9 2 5 -9 0 -13 -14 -13 -14 0 -19 4 -15
13 4 6 -2 1 -13 -12 -13 -16 -24 -21 -33 -15 -18 11 -40 14 -36 6 4 -8 -60
-72 -70 -71 -4 1 -12 -6 -18 -16 -16 -28 -43 -54 -49 -48 -3 4 -6 1 -6 -6 0
-7 -4 -9 -10 -6 -9 5 -14 -7 -11 -27 0 -4 -8 -5 -18 -3 -15 3 -18 -1 -14 -18
3 -16 2 -18 -5 -8 -7 9 -12 10 -16 2 -4 -6 -4 -11 1 -11 4 0 0 -5 -10 -11 -9
-5 -23 -7 -30 -3 -9 6 -9 4 1 -8 10 -13 10 -17 -3 -22 -11 -4 -14 -2 -9 6 4 7
3 8 -4 4 -7 -4 -12 -13 -12 -19 0 -13 -42 -53 -50 -48 -2 1 -7 -6 -11 -16 -4
-10 -8 -12 -8 -5 -1 8 -13 0 -27 -17 -14 -17 -22 -36 -18 -42 4 -7 3 -9 -4 -6
-15 10 -43 -3 -35 -16 4 -6 0 -8 -11 -4 -12 5 -16 2 -14 -11 2 -11 -3 -17 -14
-16 -10 1 -16 -3 -15 -10 1 -6 -4 -10 -12 -8 -12 3 -12 0 -1 -13 11 -13 10
-15 -4 -9 -9 3 -16 1 -16 -6 0 -6 -4 -8 -10 -5 -5 3 -10 -1 -10 -9 0 -9 -5
-16 -11 -16 -7 0 -9 -10 -7 -25 3 -14 2 -25 -2 -25 -4 0 -6 -16 -4 -35 2 -26
0 -34 -9 -28 -14 8 8 -21 41 -55 12 -12 22 -27 22 -32 0 -6 7 -10 15 -10 8 0
15 -7 15 -16 0 -8 4 -12 10 -9 9 6 14 -8 11 -27 0 -5 6 -8 15 -8 8 0 12 -4 9
-10 -3 -5 1 -10 9 -10 10 0 13 -6 9 -17 -4 -11 -3 -14 5 -9 7 4 12 2 12 -4 0
-6 4 -8 10 -5 5 3 10 -3 10 -14 0 -12 9 -26 20 -33 11 -7 20 -17 20 -21 0 -5
7 -15 15 -23 12 -12 15 -12 16 -2 0 7 5 -3 12 -22 7 -19 16 -33 20 -30 11 7
30 -27 22 -40 -3 -5 4 -7 16 -5 18 4 19 2 7 -12 -7 -9 -8 -14 -2 -10 12 7 56
-38 47 -47 -4 -3 1 -6 10 -6 9 0 17 -7 17 -16 0 -8 4 -13 9 -10 5 4 15 -7 23
-24 7 -16 19 -30 26 -30 7 0 11 -4 7 -9 -6 -11 33 -51 49 -51 5 0 7 -3 3 -6
-3 -3 5 -16 19 -29 13 -12 24 -28 24 -34 0 -7 4 -10 9 -6 6 3 8 -4 6 -16 -4
-17 -2 -19 11 -8 12 10 13 9 8 -4 -4 -12 2 -20 20 -29 17 -7 22 -14 15 -19 -8
-4 -4 -9 10 -14 11 -3 21 -13 21 -20 0 -8 5 -17 12 -21 7 -5 8 -3 3 6 -5 9 -4
11 4 6 8 -6 9 -12 2 -20 -14 -17 -1 -29 15 -15 10 8 12 6 9 -10 -2 -12 0 -19
6 -16 5 4 9 2 9 -4 0 -5 9 -12 20 -16 11 -3 19 -9 19 -13 -3 -20 2 -32 11 -27
9 5 15 -14 11 -37 0 -4 8 -5 19 -3 12 2 18 0 15 -6 -4 -5 1 -12 10 -15 13 -6
14 -8 3 -15 -10 -7 -11 -9 0 -9 8 0 10 -5 6 -12 -5 -8 0 -7 11 2 10 8 16 10
12 4 -3 -6 3 -16 13 -24 10 -8 17 -17 14 -22 -3 -4 0 -8 7 -8 6 0 9 -8 6 -20
-3 -10 -2 -19 2 -18 16 3 41 -16 41 -31 0 -14 2 -14 11 -1 9 12 10 11 6 -7 -4
-16 -1 -20 11 -16 12 5 14 2 9 -12 -6 -15 -5 -16 7 -6 12 10 13 9 9 -8 -3 -13
-1 -21 7 -21 17 0 40 -26 40 -47 0 -15 2 -16 10 -3 8 12 10 11 10 -7 0 -13 5
-23 11 -23 5 0 7 -5 3 -12 -5 -7 -2 -9 9 -5 11 4 14 2 10 -9 -4 -10 0 -12 13
-7 13 5 16 3 11 -10 -3 -9 -2 -19 4 -22 5 -4 7 -10 4 -15 -3 -4 3 -7 13 -6 10
0 17 -6 16 -16 -1 -10 4 -14 12 -11 9 3 14 -1 14 -12 0 -9 5 -13 10 -10 6 3
10 -1 10 -10 0 -9 4 -13 10 -10 5 3 10 0 10 -8 0 -7 6 -14 14 -14 8 0 12 6 9
13 -2 6 1 15 8 20 8 5 10 3 5 -7 -4 -8 -1 -5 8 5 8 10 13 23 10 28 -3 5 0 7 8
6 7 -2 12 3 10 10 -1 8 1 11 5 9 11 -7 33 19 25 29 -4 4 1 4 11 1 12 -5 16 -3
11 4 -3 6 9 25 27 41 19 17 27 27 19 23 -8 -5 -6 1 5 12 16 16 23 18 35 9 13
-9 13 -9 2 6 -16 20 -8 40 13 31 8 -3 15 0 15 6 0 6 -6 11 -12 11 -9 0 -8 3 2
9 8 6 17 8 21 5 4 -2 11 1 15 7 4 8 3 9 -4 5 -7 -4 -12 -3 -12 2 0 6 7 12 15
16 8 3 15 13 15 21 0 9 5 13 10 10 6 -3 10 0 10 8 0 18 44 59 54 50 4 -4 4 1
0 11 -5 14 -4 17 4 12 7 -4 12 -2 12 4 0 6 4 9 9 5 5 -3 13 0 17 6 4 7 3 9 -4
5 -6 -3 -13 -2 -16 3 -3 5 6 12 19 15 14 4 23 11 20 16 -3 5 3 13 12 19 14 8
15 11 3 11 -12 0 -11 3 3 11 9 5 23 7 30 3 7 -5 6 0 -3 11 -13 17 -13 18 1 13
13 -5 16 -2 12 12 -3 10 1 21 8 25 8 5 10 4 5 -3 -4 -7 -2 -12 3 -12 6 0 11 7
11 16 0 8 4 12 10 9 6 -4 7 1 3 11 -4 12 -3 15 5 10 11 -6 17 5 13 27 0 4 6 7
15 7 8 0 12 5 9 10 -3 6 -1 10 5 10 6 0 8 4 5 10 -4 6 1 7 11 3 10 -3 15 -2
12 3 -8 12 17 35 28 26 4 -4 4 -2 1 5 -4 6 0 19 9 27 8 9 13 16 9 16 -4 0 0 7
9 15 8 8 20 15 26 15 6 0 8 5 5 10 -3 6 -1 10 5 10 6 0 8 5 4 12 -5 8 -2 9 9
5 9 -3 16 -3 15 1 -4 15 24 52 34 46 7 -4 8 -3 4 4 -4 7 -2 12 4 12 6 0 8 5 4
12 -5 8 -2 9 11 4 16 -6 16 -4 4 11 -9 11 -10 14 -1 9 7 -4 12 -2 12 4 0 6 4
9 9 6 9 -6 26 22 23 37 -1 4 2 7 7 7 5 0 19 16 31 35 12 19 25 33 30 30 4 -3
10 2 13 9 3 8 1 17 -6 20 -7 4 -2 4 11 2 12 -2 19 0 16 5 -6 10 45 65 57 62 3
-1 5 8 5 19 -1 12 6 23 14 26 13 5 13 3 0 -14 -14 -18 -14 -18 2 -5 10 7 16
17 13 21 -6 10 25 51 35 45 5 -3 12 6 16 20 7 30 79 106 91 96 4 -3 1 3 -7 13
-14 18 -13 19 6 14 18 -5 21 -2 17 16 -3 15 -2 17 5 8 7 -11 11 -9 15 8 4 14
10 19 18 14 8 -4 10 -3 5 5 -5 7 1 20 13 30 12 10 21 26 21 36 0 14 3 15 15 5
18 -15 19 -7 4 22 -7 13 -7 18 -1 14 6 -3 14 -1 18 5 4 8 3 9 -4 5 -7 -4 -12
-2 -12 4 0 6 -4 8 -10 5 -5 -3 -10 3 -10 14 0 12 -4 21 -10 21 -5 0 -10 10
-10 23 0 18 -2 19 -10 7 -8 -13 -10 -12 -10 3 0 9 -7 17 -16 17 -9 0 -18 9
-21 20 -3 11 -8 18 -12 16 -3 -2 -12 2 -19 10 -10 11 -10 14 0 14 8 0 6 5 -5
11 -9 5 -23 7 -30 3 -6 -4 -9 -4 -5 1 4 4 0 14 -8 22 -8 8 -11 20 -7 26 4 7 0
6 -10 -1 -14 -12 -16 -11 -12 6 3 16 -1 20 -17 17 -17 -4 -18 -2 -7 11 8 9 8
14 1 12 -6 -2 -18 6 -26 17 l-16 20 6 -20 c4 -17 3 -16 -8 3 -8 12 -18 19 -23
15 -5 -4 -3 1 5 11 10 13 10 17 3 12 -7 -4 -13 -3 -13 3 0 12 -60 46 -73 43
-5 -1 -6 2 -2 8 3 6 -9 26 -29 44 -19 19 -32 37 -28 41 3 3 -1 3 -11 -1 -11
-4 -17 -1 -17 7 0 16 -60 72 -81 77 -8 2 -18 8 -24 14 -7 8 -6 9 2 4 6 -3 14
-3 16 1 3 5 -8 9 -25 10 -21 0 -26 -2 -17 -8 9 -6 10 -9 2 -9 -6 0 -15 5 -19
11 -3 6 -17 8 -31 4 -16 -4 -22 -2 -18 5 7 12 -23 9 -44 -4 -9 -6 -12 -5 -8 1
4 6 0 14 -9 17 -8 3 -12 2 -9 -4 3 -6 1 -10 -4 -10 -6 0 -11 7 -11 15 0 8 -5
15 -11 15 -5 0 -7 -4 -4 -10 3 -5 -1 -10 -9 -10 -9 0 -16 6 -16 13 0 9 -3 8
-9 -2 -7 -11 -9 -11 -13 0 -5 12 -9 12 -28 1 -12 -8 -19 -9 -15 -3 4 7 -8 11
-34 11 -22 0 -42 4 -46 9 -3 6 -17 6 -35 1 -23 -7 -32 -5 -40 8 -5 9 -10 12
-10 6 0 -17 -71 -6 -94 14 -11 10 -16 12 -13 5 4 -6 3 -14 -3 -18 -5 -3 -10
-2 -10 3 0 5 -9 12 -19 15 -15 3 -18 1 -14 -12 4 -14 3 -14 -9 1 -12 14 -18
15 -39 4z m-1069 -420 c0 -2 -8 -10 -17 -17 -16 -13 -17 -12 -4 4 13 16 21 21
21 13z"/>
<path d="M710 2350 c0 -5 5 -10 11 -10 5 0 7 5 4 10 -3 6 -8 10 -11 10 -2 0
-4 -4 -4 -10z"/>
<path d="M596 1087 c3 -10 9 -15 12 -12 3 3 0 11 -7 18 -10 9 -11 8 -5 -6z"/>
<path d="M1649 593 c-13 -16 -12 -17 4 -4 16 13 21 21 13 21 -2 0 -10 -8 -17
-17z"/>
</g>
</svg>
